<?xml version="1.0" encoding="utf-8"?>
<!-- Generator: Adobe Illustrator 18.1.0, SVG Export Plug-In . SVG Version: 6.00 Build 0)  -->
<svg version="1.1" id="Layer_1" xmlns="http://www.w3.org/2000/svg" xmlns:xlink="http://www.w3.org/1999/xlink" x="0px" y="0px"
	 viewBox="0 0 480 640" enable-background="new 0 0 480 640" xml:space="preserve">
<path fill="none" stroke="#000000" stroke-miterlimit="10" d="M120.7,138.2c0,0,100.2,20.9,123.4-34.6 M136.2,140.4l15.2,24
	l14.4-22.4l29.9,22.4l13.5-29.3l14.4,14.7v-21.1l7.3,4.9v-11.8"/>
<path fill="none" stroke="#000000" stroke-miterlimit="10" d="M218.4,33.2l21.5-26.4l9,34.1L304.8,13l-14.7,49.1l103.3-20.2
	l-66.4,78.9L434.7,151l-86.6,101.1l111.2,28.8l-94.7,100.2L480,393.1l-96.3,121.7"/>
<path fill="none" stroke="#000000" stroke-miterlimit="10" d="M200.7,241.2l37.2-5.7c0,0,85.5,203.9,73.2,208.1L91.6,430.3L74.2,430
	"/>
<path fill="none" stroke="#000000" stroke-miterlimit="10" d="M207.4,33.2c0,0,100.4,2.2,119.7,87.6c19.2,85.4,49.1,372.7,56.6,394
	c7.4,21.3-1.6,50,0,43.7s-357-30.4-378-18.2C-4.2,546.1,90,406.3,90,406.3s121-176.5,119.7-181c-2.6-8.3-119.7-83.2-97.3-132.3
	s83.4-60.9,83.9-59.8 M159.5,304l-23.5-43.1 M147.7,253l-7,16.7l-15.1-8.3 M179.4,276.5h50.8 M150.6,317c0,0,90.3,6.4,93.5,0"/>
<path fill="none" stroke="#000000" stroke-miterlimit="10" d="M128.5,349.7c0,0,102.1,12.5,124.8,9.4"/>
<path fill="none" stroke="#000000" stroke-miterlimit="10" d="M100.8,390.5c0,0,5.7,7.7,19.9,6.7c14.2-1,132.6,4.1,132.6,4.1"/>
<ellipse fill="none" stroke="#000000" stroke-miterlimit="10" cx="169.8" cy="83" rx="7.6" ry="6.7"/>
<g>
	<path d="M220.9,75.6c0,0,0,0.3,0,0.9s0,1.5-0.1,2.6s-0.3,2.5-1,4.1c-0.3,0.7-0.7,1.6-1.3,2.3c-0.6,0.7-1.5,1.3-2.3,1.9
		c-1.7,1.2-3.9,2-6.2,2.2c-0.6,0-1.2,0.1-1.9,0.1c-0.6,0-1,0-1.7-0.1c-1.3-0.1-2.5-0.6-3.6-1c-1.2-0.6-2.3-1.2-3.3-2
		c-1-0.9-1.9-1.9-2.8-3c-0.7-1.2-1.3-2.3-1.7-3.6c-0.4-1.3-0.6-2.6-0.6-4.2c0-1.2,0.1-2.8,0.6-4.1c0.4-1.3,1-2.6,1.7-3.6
		c0.7-1.2,1.7-2.2,2.8-3c1-0.9,2.2-1.6,3.3-2c2.3-1,5.1-1.3,7.3-1.2c2.5,0.3,4.5,1.2,6.2,2.3c0.9,0.6,1.7,1.2,2.3,1.9
		c0.3,0.4,0.6,0.7,0.7,1.2s0.4,0.7,0.6,1.2c0.7,1.6,0.9,2.9,1,4.1c0.1,1.2,0.1,2,0.1,2.6C220.9,75.4,220.9,75.6,220.9,75.6z
		 M220.9,75.6c0,0,0-0.3,0-0.9c0-0.3-0.1-0.6-0.1-1c-0.1-0.4-0.3-0.9-0.4-1.3c-0.4-1-1.2-2-2.2-3c-0.6-0.4-1-1-1.7-1.5
		c-0.3-0.3-0.6-0.4-0.9-0.7c-0.3-0.3-0.6-0.4-1-0.7c-1.3-0.9-3.2-1.6-4.9-1.7c-2-0.1-3.9,0-5.8,0.9c-1,0.4-1.9,1-2.6,1.6
		c-0.9,0.7-1.6,1.5-2.2,2.3s-1,1.9-1.5,2.9c-0.3,1.2-0.4,2-0.4,3.3c0,1,0.1,2.2,0.4,3.2c0.3,1,0.9,2,1.5,2.9
		c0.6,0.9,1.3,1.7,2.2,2.3c0.9,0.7,1.7,1.2,2.6,1.6c0.9,0.4,2,0.7,2.9,0.9c0.4,0.1,1,0.1,1.6,0.1c0.4,0,0.9,0,1.5,0
		c1.9-0.3,3.6-0.9,4.9-1.7c0.3-0.3,0.7-0.4,1-0.7c0.3-0.3,0.6-0.6,0.9-0.7c0.6-0.4,1.2-1,1.7-1.5c1-1,1.7-2,2.2-3
		c0.3-0.4,0.4-0.9,0.4-1.3c0.1-0.4,0.1-0.7,0.1-1C220.9,75.9,220.9,75.6,220.9,75.6z"/>
</g>
<path fill="none" stroke="#000000" stroke-miterlimit="10" d="M142,539.5l-13.5,73.1l-34.9-10.3 M128.5,612.6l-18.3,24.7"/>
<path fill="none" stroke="#000000" stroke-miterlimit="10" d="M197.4,542.4l-6.4,70.1l38.6-6.2 M191,612.6l40.1,12.3"/>
</svg>
